<svg data-color="1" xmlns="http://www.w3.org/2000/svg" xmlns:xlink="http://www.w3.org/1999/xlink" version="1.1" x="0px" y="0px" viewBox="68.40003967285156 71.49999237060547 374.90167236328125 369.199951171875" enable-background="new 0 0 512 512" xml:space="preserve" fill="#f49531">
  <g>
    <circle cx="293.2" cy="127.2" r="12.9"></circle>
    <path d="M403,355c5.6-7.2,9-16.2,9-26c0-23.7-19.3-42.9-42.9-42.9h-11.5c-33.1,0-60.1-27-60.1-60.1v-32.8c0-5.6,4.5-10.1,10.1-10.1   c5.9,0,11.9-1.4,17.2-4.1l28.8-14.4c10.5-5.2,17.7-14.7,20.2-25.7h35.4v-17.2h-35.4c-2.2-9.4-7.8-17.8-16.1-23.3l-30.8-20.5   c-6.3-4.2-13.7-6.4-21.3-6.4h-23.3c-39,0-70.8,31.7-70.8,70.8v98.2c0,18,7.7,34.2,19.8,45.7h-43.5l-51.6-51.6   c-9.7-9.7-26.7-9.7-36.4,0c-4.9,4.9-7.5,11.3-7.5,18.2c0,6.9,2.7,13.4,7.5,18.2l21.3,21.3c-12.6,7.5-21.2,21.1-21.2,36.8   c0,9.8,3.4,18.8,9,26c-22.5,1.3-40.5,19.9-40.5,42.7c0,23.7,19.3,42.9,42.9,42.9h289.1c23.7,0,42.9-19.3,42.9-42.9   C443.5,374.9,425.5,356.3,403,355z M228.8,240.4v-98.2c0-29.5,24-53.6,53.6-53.6h23.3c4.2,0,8.3,1.2,11.8,3.6l30.8,20.5   c5.9,3.9,9.4,10.5,9.4,17.6c0,8.1-4.5,15.3-11.7,19l-28.8,14.4c-2.9,1.5-6.2,2.2-9.5,2.2c-15.1,0-27.3,12.3-27.3,27.3v32.8   c0,24.3,11.3,45.9,28.8,60.1h-11.6h-23C249.3,286.1,228.8,265.6,228.8,240.4z M112,258.7c-1.6-1.6-2.5-3.8-2.5-6.1   c0-2.3,0.9-4.4,2.5-6.1c3.3-3.2,8.9-3.2,12.1,0l39.5,39.5h-20.7c-1.1,0-2.1,0.2-3.2,0.3L112,258.7z M142.9,303.2h131.6h23h71.6   c14.2,0,25.8,11.6,25.8,25.8c0,14.2-11.6,25.8-25.8,25.8H142.9c-14.2,0-25.8-11.6-25.8-25.8C117.2,314.8,128.7,303.2,142.9,303.2z    M400.6,423.5H111.4c-14.2,0-25.8-11.6-25.8-25.8c0-14.2,11.6-25.8,25.8-25.8h31.5h226.2h31.5c14.2,0,25.8,11.6,25.8,25.8   C426.3,411.9,414.8,423.5,400.6,423.5z"></path>
  </g>
</svg>
